<?xml version="1.0" encoding="UTF-8"?>
<svg id="Layer_1" xmlns="http://www.w3.org/2000/svg" version="1.1" viewBox="0 0 100 84.1">
  <!-- Generator: Adobe Illustrator 29.5.1, SVG Export Plug-In . SVG Version: 2.1.0 Build 141)  -->
  <defs>
    <style>
      .st0 {
        fill: #141004;
      }
    </style>
  </defs>
  <path class="st0" d="M0,75.8v-16.6l13.4-8.3,13.4,8.3v7h9.9v-7l12.1-7.5v-19.2l-12.1-7.5v-7h-9.9v7l-13.4,8.3L0,24.9V8.3L13.4,0l13.4,8.3v7h9.9v-7L50,0l13.4,8.3v7h9.9v-7L86.6,0l13.4,8.3v16.6l-13.4,8.3-13.4-8.3v-7h-9.9v7l-12.1,7.5v19.2l12.1,7.5v7h9.9v-7l13.4-8.3,13.4,8.3v16.6l-13.4,8.3-13.4-8.3v-7h-9.9v7l-13.4,8.3-13.4-8.3v-7h-9.9v7l-13.4,8.3L0,75.8ZM51.2,68.3v12.1l9.7-6v-12.1l-9.7,6ZM14.6,68.3v12.1l9.7-6v-12.1l-9.7,6ZM87.8,68.3v12.1l9.7-6v-12.1l-9.7,6ZM39,74.3l9.7,6v-12.1l-9.7-6v12.1ZM2.4,74.3l9.7,6v-12.1l-9.7-6v12.1ZM75.7,74.3l9.7,6v-12.1l-9.7-6v12.1ZM76.9,60l9.7,6,9.7-6-9.7-6-9.7,6ZM40.3,60l9.7,6,9.7-6-9.7-6-9.7,6ZM3.6,60l9.7,6,9.7-6-9.7-6-9.7,6ZM87.8,17.4v12.1l9.7-6v-12.1l-9.7,6ZM39,23.4l9.7,6v-12.1l-9.7-6v12.1ZM51.2,17.4v12.1l9.7-6v-12.1l-9.7,6ZM75.7,23.4l9.7,6v-12.1l-9.7-6v12.1ZM2.4,23.4l9.7,6v-12.1L2.4,11.3v12.1ZM14.6,17.4v12.1l9.7-6v-12.1l-9.7,6ZM40.3,9.1l9.7,6,9.7-6-9.7-6-9.7,6ZM76.9,9.1l9.7,6,9.7-6-9.7-6-9.7,6ZM3.6,9.1l9.7,6,9.7-6L13.4,3,3.6,9.1Z"/>
</svg>