<?xml version="1.0" encoding="UTF-8"?>
<svg id="Layer_1" xmlns="http://www.w3.org/2000/svg" version="1.1" viewBox="0 0 100 84.1">
  <!-- Generator: Adobe Illustrator 29.5.1, SVG Export Plug-In . SVG Version: 2.1.0 Build 141)  -->
  <defs>
    <style>
      .st0 {
        fill: #141004;
      }
    </style>
  </defs>
  <path class="st0" d="M8.4,83.4v-14H0l6.9-13h11.2v-5.8h2v5.8h8.9v-5.8h2v5.8h8.9v-5.8h2v5.8h11.2l6.9,13h-8.4v14H8.4ZM10.4,81.4h39.2v-12h-14.3l-5.3-9.9-5.3,9.9h-14.3v12h0ZM36.5,67.4h20.2l-4.8-9h-20.2s4.8,9,4.8,9ZM3.4,67.4h20.2l4.8-9H8.2s-4.8,9-4.8,9ZM18.1,40.5v-6.2l-6.4,5.1h-3.2v-9.7l9.6-11.9v-.5c0-6,3.3-11.5,8.4-14.5l3.5-2,3.5,2c5.2,3,8.4,8.5,8.4,14.5v.5l9.6,11.9v9.7h-3.2l-6.4-5.1v6.2h-23.8ZM20.6,13.6c-.3,1.2-.5,2.5-.5,3.7v21.2h19.8v-21.2c0-1.3-.2-2.5-.5-3.7l-.5-2-1.8,1.2c-2.1,1.4-4.6,2.1-7.1,2.1s-5-.7-7.1-2.1l-1.8-1.2s-.5,2-.5,2ZM10.5,30.3v7.3l7.6-6v-10.7s-7.6,9.4-7.6,9.4ZM41.9,31.7l7.6,6v-7.3l-7.6-9.4v10.7ZM27.5,4.5c-1.7,1-3.2,2.3-4.5,4l-.9,1.2,1.2.9c1.9,1.5,4.3,2.3,6.7,2.3s4.8-.8,6.7-2.3l1.2-.9-.9-1.2c-1.2-1.6-2.7-3-4.5-4l-2.5-1.4-2.5,1.4h0ZM31,22.7h-2v2h2v-2Z"/>
</svg>