<?xml version="1.0" encoding="UTF-8"?>
<svg id="Layer_1" xmlns="http://www.w3.org/2000/svg" version="1.1" viewBox="0 0 100 84.1">
  <!-- Generator: Adobe Illustrator 29.5.1, SVG Export Plug-In . SVG Version: 2.1.0 Build 141)  -->
  <defs>
    <style>
      .st0 {
        fill: #141004;
      }
    </style>
  </defs>
  <path class="st0" d="M28.2,58.1h-10.9v2.3h10.9v-2.3ZM82.7,58.1h-10.9v2.3h10.9v-2.3ZM3,83.3v-48.2h94v48.2H3ZM92.6,69.4c-4.6,1.2-8.3,4.8-9.5,9.5l-.6,2.1h12.2v-12.2l-2.1.6h0ZM19.4,38.9c-1.1,6.5-6.2,11.6-12.7,12.7l-1.4.2v14.8l1.4.2c6.5,1.1,11.6,6.2,12.7,12.7l.2,1.4h60.7l.2-1.4c1.1-6.5,6.2-11.6,12.7-12.7l1.4-.2v-14.8l-1.4-.2c-6.5-1.1-11.6-6.2-12.7-12.7l-.2-1.4H19.7l-.2,1.4ZM5.3,81h12.2l-.6-2.1c-1.2-4.6-4.8-8.3-9.5-9.5l-2.1-.6v12.2h0ZM83.1,39.6c1.2,4.6,4.8,8.3,9.5,9.5l2.1.6v-12.2h-12.2l.6,2.1h0ZM5.3,49.6l2.1-.6c4.6-1.2,8.3-4.8,9.5-9.5l.6-2.1H5.3v12.2h0ZM50,71.9c-6.9,0-12.6-5.6-12.6-12.6.2-3.9,1.6-7.2,4.1-9.4,2.3-2,5.3-3.1,8.5-3.1s6.2,1.1,8.5,3.1c2.5,2.3,4,5.5,4.1,9.4,0,6.9-5.7,12.6-12.6,12.6ZM50,48.9c-5.7,0-10.3,4.6-10.3,10.3h0c.3,7.1,5.5,10.3,10.3,10.3s10-3.2,10.3-10.2h0c0-5.8-4.6-10.4-10.3-10.4h0ZM3,26v-4c0-3.1,1.4-5.9,3.9-7.8l1.4-1-1.1-1.4c-1.6-2.1-1.8-4.7-.6-7.1,1.2-2.4,3.5-3.9,6.1-3.9h.2c2.6,0,4.9,1.4,6.1,3.9,1.2,2.4,1,5.1-.6,7.1l-1.1,1.4,1.4,1c2.5,1.9,3.9,4.7,3.9,7.8v4H3ZM12.7,14.6c-3.6,0-7.3,2.5-7.4,7.3v1.8c0,0,15,0,15,0v-1.8c-.2-4.8-3.9-7.3-7.5-7.3h0ZM12.7,3.1c-2.5,0-4.6,2.1-4.6,4.6s2.1,4.6,4.6,4.6h0c2.9-.1,4.5-2.4,4.5-4.6s-1.5-4.5-4.5-4.6h0ZM77.5,26v-4c0-3.1,1.4-5.9,3.9-7.8l1.4-1-1.1-1.4c-1.6-2.1-1.8-4.7-.6-7.1,1.2-2.4,3.5-3.9,6.1-3.9h.2c2.6,0,4.9,1.4,6.1,3.9,1.2,2.4,1,5.1-.6,7.1l-1.1,1.4,1.4,1c2.5,1.9,3.9,4.7,3.9,7.8v4h-19.5ZM87.3,14.6c-3.6,0-7.3,2.5-7.4,7.3v1.8c0,0,15,0,15,0v-1.8c-.2-4.8-3.9-7.3-7.5-7.3h0ZM87.3,3.1c-2.5,0-4.6,2.1-4.6,4.6s2.1,4.6,4.6,4.6h0c2.9-.1,4.5-2.4,4.5-4.6s-1.5-4.5-4.5-4.6h0ZM68.3,23.7H31.7v2.3h36.7v-2.3ZM68.3,12.3h-31v2.3h31v-2.3Z"/>
</svg>